{
  "accessors": [
    {
      "bufferView": 1,
      "componentType": 5126,
      "count": 54811,
      "max": [
        6.125,
        3.375,
        1.4600000381469727
      ],
      "min": [
        -6.125,
        -3.0,
        -1.7868130207061768
      ],
      "type": "VEC3"
    },
    {
      "bufferView": 1,
      "byteOffset": 657732,
      "componentType": 5126,
      "count": 54811,
      "max": [
        1.0,
        1.0,
        1.0
      ],
      "min": [
        -1.0,
        -1.0,
        -1.0
      ],
      "type": "VEC3"
    },
    {
      "bufferView": 2,
      "componentType": 5126,
      "count": 54811,
      "max": [
        1.0,
        1.0,
        1.0,
        1.0
      ],
      "min": [
        0.0,
        0.0117647061124444,
        0.0,
        1.0
      ],
      "type": "VEC4"
    },
    {
      "bufferView": 0,
      "componentType": 5125,
      "count": 107214,
      "type": "SCALAR"
    },
    {
      "bufferView": 1,
      "byteOffset": 1315464,
      "componentType": 5126,
      "count": 3798,
      "max": [
        0.875,
        1.9900000095367432,
        1.940000057220459
      ],
      "min": [
        -0.875,
        -0.49000000953674316,
        1.375
      ],
      "type": "VEC3"
    },
    {
      "bufferView": 1,
      "byteOffset": 1361040,
      "componentType": 5126,
      "count": 3798,
      "max": [
        1.0,
        1.0,
        1.0
      ],
      "min": [
        -1.0,
        -1.0,
        -1.0
      ],
      "type": "VEC3"
    },
    {
      "bufferView": 2,
      "byteOffset": 876976,
      "componentType": 5126,
      "count": 3798,
      "max": [
        1.0,
        1.0,
        1.0,
        1.0
      ],
      "min": [
        0.0,
        0.0,
        0.0,
        1.0
      ],
      "type": "VEC4"
    },
    {
      "bufferView": 0,
      "byteOffset": 428856,
      "componentType": 5125,
      "count": 8946,
      "type": "SCALAR"
    },
    {
      "bufferView": 1,
      "byteOffset": 1406616,
      "componentType": 5126,
      "count": 16227,
      "max": [
        1.9249999523162842,
        19.199758529663086,
        2.5602500438690186
      ],
      "min": [
        -1.9249999523162842,
        -4.0625,
        1.266903042793274
      ],
      "type": "VEC3"
    },
    {
      "bufferView": 1,
      "byteOffset": 1601340,
      "componentType": 5126,
      "count": 16227,
      "max": [
        1.0,
        1.0,
        1.0
      ],
      "min": [
        -1.0,
        -1.0,
        -1.0
      ],
      "type": "VEC3"
    },
    {
      "bufferView": 2,
      "byteOffset": 937744,
      "componentType": 5126,
      "count": 16227,
      "max": [
        1.0,
        1.0,
        1.0,
        1.0
      ],
      "min": [
        0.003921568859368563,
        0.0,
        0.0,
        1.0
      ],
      "type": "VEC4"
    },
    {
      "bufferView": 0,
      "byteOffset": 464640,
      "componentType": 5125,
      "count": 32598,
      "type": "SCALAR"
    }
  ],
  "asset": {
    "extras": {
      "author": "Thales (https://sketchfab.com/ThalesMML)",
      "license": "CC-BY-4.0 (http://creativecommons.org/licenses/by/4.0/)",
      "source": "https://sketchfab.com/3d-models/1903-wright-flyer-i-stormworks-38b91a9a0e784829ba96daafa8d77f76",
      "title": "1903 Wright Flyer I - Stormworks"
    },
    "generator": "Sketchfab-15.79.0",
    "version": "2.0"
  },
  "bufferViews": [
    {
      "buffer": 0,
      "byteLength": 595032,
      "name": "floatBufferViews",
      "target": 34963
    },
    {
      "buffer": 0,
      "byteLength": 1796064,
      "byteOffset": 595032,
      "byteStride": 12,
      "name": "floatBufferViews",
      "target": 34962
    },
    {
      "buffer": 0,
      "byteLength": 1197376,
      "byteOffset": 2391096,
      "byteStride": 16,
      "name": "floatBufferViews",
      "target": 34962
    }
  ],
  "buffers": [
    {
      "byteLength": 3588472,
      "uri": "scene.bin"
    }
  ],
  "materials": [
    {
      "doubleSided": true,
      "name": "Scene_-_Root",
      "pbrMetallicRoughness": {
        "metallicFactor": 0.0,
        "roughnessFactor": 0.6
      }
    }
  ],
  "meshes": [
    {
      "name": "Object_0",
      "primitives": [
        {
          "attributes": {
            "COLOR_0": 2,
            "NORMAL": 1,
            "POSITION": 0
          },
          "indices": 3,
          "material": 0,
          "mode": 4
        }
      ]
    },
    {
      "name": "Object_1",
      "primitives": [
        {
          "attributes": {
            "COLOR_0": 6,
            "NORMAL": 5,
            "POSITION": 4
          },
          "indices": 7,
          "material": 0,
          "mode": 4
        }
      ]
    },
    {
      "name": "Object_2",
      "primitives": [
        {
          "attributes": {
            "COLOR_0": 10,
            "NORMAL": 9,
            "POSITION": 8
          },
          "indices": 11,
          "material": 0,
          "mode": 4
        }
      ]
    }
  ],
  "nodes": [
    {
      "children": [
        1
      ],
      "matrix": [
        1.0,
        0.0,
        0.0,
        0.0,
        0.0,
        2.220446049250313e-16,
        -1.0,
        0.0,
        0.0,
        1.0,
        2.220446049250313e-16,
        0.0,
        0.0,
        0.0,
        0.0,
        1.0
      ],
      "name": "Sketchfab_model"
    },
    {
      "children": [
        2
      ],
      "name": "root"
    },
    {
      "children": [
        3,
        5,
        7
      ],
      "matrix": [
        1.0,
        0.0,
        0.0,
        0.0,
        0.0,
        2.220446049250313e-16,
        1.0,
        0.0,
        0.0,
        -1.0,
        2.220446049250313e-16,
        0.0,
        0.0,
        0.0,
        0.0,
        1.0
      ],
      "name": "GLTF_SceneRootNode"
    },
    {
      "children": [
        4
      ],
      "matrix": [
        -1.0,
        -0.0,
        0.0,
        -0.0,
        0.0,
        -0.0,
        1.0,
        -0.0,
        -0.0,
        -1.0,
        -0.0,
        -0.0,
        0.0,
        1.25,
        0.0,
        1.0
      ],
      "name": "WFlyer_0"
    },
    {
      "mesh": 0,
      "name": "Object_4"
    },
    {
      "children": [
        6
      ],
      "matrix": [
        1.0,
        0.0,
        0.0,
        0.0,
        0.0,
        0.0,
        1.0,
        0.0,
        0.0,
        -1.0,
        0.0,
        0.0,
        0.0,
        0.5,
        0.0,
        1.0
      ],
      "name": "WDolly_1"
    },
    {
      "mesh": 1,
      "name": "Object_6"
    },
    {
      "children": [
        8
      ],
      "matrix": [
        1.0,
        0.0,
        0.0,
        0.0,
        0.0,
        0.0,
        1.0,
        0.0,
        0.0,
        -1.0,
        0.0,
        0.0,
        0.0,
        0.0,
        0.0,
        1.0
      ],
      "name": "WRail_2"
    },
    {
      "mesh": 2,
      "name": "Object_8"
    }
  ],
  "scene": 0,
  "scenes": [
    {
      "name": "Sketchfab_Scene",
      "nodes": [
        0
      ]
    }
  ]
}
